<svg id="Layer_3" enable-background="new 0 0 64 64" height="512" viewBox="0 0 64 64" width="512" xmlns="http://www.w3.org/2000/svg"><path d="m2 58h60v4h-60z" fill="#8892a0"/><path d="m34 28h6v8h-6z" fill="#4d5d7a"/><path d="m4 58v-48l22 11v37" fill="#2d4d83"/><path d="m22 36h38v22h-38z" fill="#4d5d7a"/><path d="m22 36v14.37c2.764 1.049 5.806 1.63 9 1.63 10.967 0 20.135-6.844 22.437-16z" fill="#8892a0"/><path d="m30 24h14v4h-14z" fill="#a8b0bc"/><path d="m26 40h30v4h-30z" fill="#fff"/><path d="m26 48h30v4h-30z" fill="#fff"/><path d="m10 58v-32h-6v32" fill="#4472b2"/><g fill="#976947"><circle cx="60" cy="18" r="2"/><circle cx="51" cy="26" r="3"/><circle cx="52" cy="8" r="6"/></g><circle cx="52" cy="7" fill="#f5b953" r="3"/><path d="m62 63h-60c-.553 0-1-.447-1-1v-4c0-.553.447-1 1-1h60c.553 0 1 .447 1 1v4c0 .553-.447 1-1 1zm-59-2h58v-2h-58z"/><path d="m52 15c-3.859 0-7-3.14-7-7s3.141-7 7-7 7 3.14 7 7-3.141 7-7 7zm0-12c-2.757 0-5 2.243-5 5s2.243 5 5 5 5-2.243 5-5-2.243-5-5-5z"/><path d="m41 7h22v2h-22z"/><path d="m60 21c-1.654 0-3-1.346-3-3s1.346-3 3-3 3 1.346 3 3-1.346 3-3 3zm0-4c-.552 0-1 .449-1 1s.448 1 1 1 1-.449 1-1-.448-1-1-1z"/><path d="m51 30c-2.206 0-4-1.794-4-4s1.794-4 4-4 4 1.794 4 4-1.794 4-4 4zm0-6c-1.103 0-2 .897-2 2s.897 2 2 2 2-.897 2-2-.897-2-2-2z"/><path d="m5 58h-2v-48c0-.347.18-.668.475-.851.295-.182.662-.197.972-.044l22 11c.339.17.553.516.553.895v15h-2v-14.382l-20-10z"/><path d="m60 59h-38c-.553 0-1-.447-1-1v-22c0-.553.447-1 1-1h38c.553 0 1 .447 1 1v22c0 .553-.447 1-1 1zm-37-2h36v-20h-36z"/><path d="m11 58h-2v-31h-5v-2h6c.553 0 1 .448 1 1z"/><path d="m56 45h-30c-.553 0-1-.447-1-1v-4c0-.553.447-1 1-1h30c.553 0 1 .447 1 1v4c0 .553-.447 1-1 1zm-29-2h28v-2h-28z"/><path d="m56 53h-30c-.553 0-1-.447-1-1v-4c0-.553.447-1 1-1h30c.553 0 1 .447 1 1v4c0 .553-.447 1-1 1zm-29-2h28v-2h-28z"/><path d="m44 29h-14c-.553 0-1-.448-1-1v-4c0-.552.447-1 1-1h14c.553 0 1 .448 1 1v4c0 .552-.447 1-1 1zm-13-2h12v-2h-12z"/><path d="m33 28h2v8h-2z"/><path d="m39 28h2v8h-2z"/></svg>