<svg id="beads" enable-background="new 0 0 300 300" height="512" viewBox="0 0 300 300" width="512" xmlns="http://www.w3.org/2000/svg"><circle cx="116" cy="118" fill="#e5efef" r="86"/><path d="m144.654 258.74c-49.517.004-72.454-27.956-82-45.617-9.05-16.745-13.195-37.14-11.67-57.428 1.511-20.102 8.451-38.808 19.541-52.671 21.305-26.631 48.199-35.023 67.008-37.374 19.319-2.415 33.993.819 35.935 1.278 2.162.341 19.163 3.351 36.859 16.165 17.08 12.368 37.997 36.569 40.647 81.623.13 2.206-1.553 4.099-3.758 4.229-2.208.137-4.098-1.553-4.228-3.758-1.98-33.66-14.547-59.1-37.353-75.614-16.955-12.277-33.342-14.732-33.505-14.756-.136-.02-.271-.046-.405-.079-.139-.034-14.598-3.533-33.498-1.112-25.087 3.209-45.765 14.781-61.456 34.396-21.036 26.295-24.08 69.844-7.08 101.297 16.292 30.146 47.46 44.63 87.768 40.794 20.546-1.956 55.241-11.73 56.768-55.208 1.47-41.861-29.819-89.978-61.999-95.341-16.449-2.742-19.222.327-19.61.97-.53.878-1.18 3.912 4.234 13.102 4.273 7.253 10.919 16.014 17.955 25.289 9.912 13.066 20.16 26.578 26.419 39.096 4.579 9.158 4.78 16.034.599 20.437-5.545 5.835-18.08 5.753-38.321-.253-13.943-4.138-26.365-9.55-26.887-9.777-2.023-.886-2.946-3.244-2.061-5.268s3.243-2.945 5.268-2.062c22.922 10.023 50.926 17.401 56.202 11.85 1.549-1.631.836-5.767-1.954-11.348-5.927-11.854-15.947-25.063-25.637-37.839-17.697-23.33-28.259-38.1-22.663-47.362 4.551-7.531 17.233-6.481 27.773-4.724 17.654 2.942 35.556 16.679 49.115 37.688 13.184 20.428 20.314 44.42 19.563 65.825-1.271 36.215-24.6 59.139-64.004 62.892-4.726.447-9.251.66-13.565.66z" fill="#4c241d"/><circle cx="170.221" cy="251.619" fill="#ffce56" r="12.381"/><path d="m170.221 268c-9.032 0-16.381-7.349-16.381-16.381s7.349-16.381 16.381-16.381 16.381 7.349 16.381 16.381-7.349 16.381-16.381 16.381zm0-24.762c-4.621 0-8.381 3.76-8.381 8.381s3.76 8.381 8.381 8.381 8.381-3.76 8.381-8.381-3.76-8.381-8.381-8.381z" fill="#4c241d"/><circle cx="165.268" cy="68.381" fill="#ffded5" r="12.381"/><path d="m165.268 84.762c-9.032 0-16.381-7.349-16.381-16.381s7.349-16.381 16.381-16.381c9.033 0 16.381 7.349 16.381 16.381s-7.348 16.381-16.381 16.381zm0-24.762c-4.621 0-8.381 3.76-8.381 8.381s3.76 8.381 8.381 8.381c4.622 0 8.381-3.76 8.381-8.381s-3.759-8.381-8.381-8.381z" fill="#4c241d"/><circle cx="229.649" cy="108" fill="#a9ba5a" r="12.381"/><path d="m229.65 124.381c-9.033 0-16.381-7.349-16.381-16.381s7.349-16.381 16.381-16.381 16.381 7.349 16.381 16.381-7.349 16.381-16.381 16.381zm0-24.762c-4.622 0-8.381 3.76-8.381 8.381s3.76 8.381 8.381 8.381 8.381-3.76 8.381-8.381-3.76-8.381-8.381-8.381z" fill="#4c241d"/><circle cx="173.649" cy="168" fill="#f53e28" r="12.381"/><path d="m173.65 184.381c-9.033 0-16.381-7.349-16.381-16.381s7.349-16.381 16.381-16.381 16.381 7.349 16.381 16.381-7.349 16.381-16.381 16.381zm0-24.762c-4.622 0-8.381 3.76-8.381 8.381s3.76 8.381 8.381 8.381 8.381-3.76 8.381-8.381-3.76-8.381-8.381-8.381z" fill="#4c241d"/><circle cx="110.792" cy="78.286" fill="#ffce56" r="12.381"/><path d="m110.792 94.667c-9.032 0-16.381-7.349-16.381-16.381s7.349-16.381 16.381-16.381 16.381 7.349 16.381 16.381-7.349 16.381-16.381 16.381zm0-24.762c-4.621 0-8.381 3.76-8.381 8.381s3.76 8.381 8.381 8.381 8.381-3.76 8.381-8.381-3.76-8.381-8.381-8.381z" fill="#4c241d"/><circle cx="71.173" cy="108" fill="#9dc1e4" r="12.381"/><path d="m71.173 124.381c-9.032 0-16.381-7.349-16.381-16.381s7.349-16.381 16.381-16.381c9.033 0 16.381 7.349 16.381 16.381s-7.348 16.381-16.381 16.381zm0-24.762c-4.621 0-8.381 3.76-8.381 8.381s3.76 8.381 8.381 8.381c4.622 0 8.381-3.76 8.381-8.381s-3.759-8.381-8.381-8.381z" fill="#4c241d"/><path d="m147.935 120.381-89.143 113.905" fill="#ffce56"/><g fill="#4c241d"><path d="m58.789 238.286c-.862 0-1.73-.277-2.462-.85-1.74-1.362-2.046-3.876-.685-5.615l89.143-113.905c1.361-1.741 3.876-2.046 5.615-.686 1.74 1.362 2.046 3.876.685 5.615l-89.143 113.906c-.789 1.009-1.965 1.535-3.153 1.535z"/><path d="m242 244c-2.209 0-4-1.791-4-4v-12c0-2.209 1.791-4 4-4s4 1.791 4 4v12c0 2.209-1.791 4-4 4z"/><path d="m242 272c-2.209 0-4-1.791-4-4v-12c0-2.209 1.791-4 4-4s4 1.791 4 4v12c0 2.209-1.791 4-4 4z"/><path d="m234 252h-12c-2.209 0-4-1.791-4-4s1.791-4 4-4h12c2.209 0 4 1.791 4 4s-1.791 4-4 4z"/><path d="m262 252h-12c-2.209 0-4-1.791-4-4s1.791-4 4-4h12c2.209 0 4 1.791 4 4s-1.791 4-4 4z"/><path d="m48 56c-7.72 0-14-6.28-14-14s6.28-14 14-14 14 6.28 14 14-6.28 14-14 14zm0-20c-3.309 0-6 2.691-6 6s2.691 6 6 6 6-2.691 6-6-2.691-6-6-6z"/><circle cx="106" cy="40" r="4"/><circle cx="266" cy="200" r="4"/><circle cx="258" cy="56" r="4"/><circle cx="54" cy="264" r="4"/><circle cx="56" cy="150" r="10"/><circle cx="204" cy="142" r="10"/><circle cx="200" cy="78" r="10"/><circle cx="128" cy="254" r="10"/></g></svg>