<?xml version="1.0"?>
<svg xmlns="http://www.w3.org/2000/svg" viewBox="0 0 64 64" width="512" height="512"><path d="m28 43h9a6 6 0 0 1 6 6v9h-20v-10z" fill="#def6ff"/><path d="m42.061 38.4a10.955 10.955 0 0 0 -3.061 7.6v11h9l-5-5v-3a7.97 7.97 0 0 1 2.749-6.025z" fill="#b6b6b7"/><path d="m49.352 41.172a7.991 7.991 0 0 1 1.648-.172h10a6 6 0 0 0 -6-6h-5a11.023 11.023 0 0 0 -2.5.3z" fill="#b6b6b7"/><path d="m55 41h4v4h-4z" fill="#fce688"/><g fill="#fff3e3"><path d="m34 20-1.9-7.215a4.428 4.428 0 0 0 -6.685-1.959 4.428 4.428 0 0 1 -4.921.152l-.437-.273a4.428 4.428 0 0 0 -6.619 2.59l-1.438 6.705z"/><path d="m10.5 20a2.5 2.5 0 0 0 0 5h1.5v-5z"/><path d="m35.5 20h-1.5v5h1.5a2.5 2.5 0 0 0 0-5z"/><path d="m32 27h-5a4 4 0 0 1 -4-4 4 4 0 0 1 -4 4h-5a2 2 0 0 1 -2-2v1a11 11 0 0 0 22 0v-1a2 2 0 0 1 -2 2z"/></g><path d="m18 43h-9a6 6 0 0 0 -6 6v9h20v-10z" fill="#def6ff"/><path d="m20.052 10.705.437.273a4.428 4.428 0 0 0 4.921-.152 4.428 4.428 0 0 1 6.69 1.959l1.9 7.215-.417-9.976a7.9 7.9 0 0 0 -10.91-6.024l-4.673 2a7 7 0 0 0 -7 7l1 7 1.433-6.7a4.428 4.428 0 0 1 6.619-2.595z" fill="#bd8331"/><path d="m23 23a4 4 0 0 0 4 4h5a2 2 0 0 0 2-2v-5h-11z" fill="#a8e2f7"/><path d="m14 27h5a4 4 0 0 0 4-4v-3h-11v5a2 2 0 0 0 2 2z" fill="#a8e2f7"/><path d="m39 57v1 3h22v-4h-13z" fill="#b6b6b7"/><path d="m50 28h4v7h-4z" fill="#b6b6b7"/><path d="m56 28v-4h-8v4h2 4z" fill="#b6b6b7"/><path d="m46 43a4 4 0 1 0 -3.939-4.6 3.908 3.908 0 0 0 3.939 4.6z" fill="#e7e7e8"/><path d="m23 37a10.944 10.944 0 0 1 -5-1.21v7.21l5 5 5-5v-7.21a10.944 10.944 0 0 1 -5 1.21z" fill="#fff3e3"/><path d="m18 24.75a1.75 1.75 0 1 1 1.75-1.75 1.752 1.752 0 0 1 -1.75 1.75zm0-2a.25.25 0 0 0 -.25.25c0 .275.5.275.5 0a.25.25 0 0 0 -.25-.25z"/><path d="m28 24.75a1.75 1.75 0 1 1 1.75-1.75 1.752 1.752 0 0 1 -1.75 1.75zm0-2a.25.25 0 0 0 -.25.25c0 .275.5.275.5 0a.25.25 0 0 0 -.25-.25z"/><path d="m23 33.75a3.755 3.755 0 0 1 -3.75-3.75h1.5a2.25 2.25 0 0 0 4.5 0h1.5a3.755 3.755 0 0 1 -3.75 3.75z"/><path d="m55 46h4a1 1 0 0 0 1-1v-3h1a1 1 0 0 0 1-1 7.008 7.008 0 0 0 -7-7v-5h1a1 1 0 0 0 1-1v-4a1 1 0 0 0 -1-1h-8a1 1 0 0 0 -1 1v4a1 1 0 0 0 1 1h1v5.06a12.137 12.137 0 0 0 -1.443.213 4.934 4.934 0 0 0 -1.557-.273 5.008 5.008 0 0 0 -4.892 3.972 11.966 11.966 0 0 0 -2.484 4.248 6.916 6.916 0 0 0 -1.624-.22h-8v-5.624a12 12 0 0 0 6-10.376h.5a3.5 3.5 0 0 0 0-7h-.541l-.377-9.019a1.1 1.1 0 0 0 -.012-.114 8.9 8.9 0 0 0 -12.292-6.789l-4.49 1.922a8.009 8.009 0 0 0 -7.788 8 .969.969 0 0 0 .01.142l.837 5.858h-.347a3.5 3.5 0 0 0 0 7h.5a12 12 0 0 0 6 10.376v5.624h-8a7.008 7.008 0 0 0 -7 7v9a1 1 0 0 0 1 1h35v2a1 1 0 0 0 1 1h22a1 1 0 0 0 1-1v-4a1 1 0 0 0 -1-1h-12.586l-4.414-4.414v-.586h16v-2h-16a6.987 6.987 0 0 1 2.141-5.014 4.973 4.973 0 0 0 3.753-1.886 7.014 7.014 0 0 1 1.106-.1h3v3a1 1 0 0 0 1 1zm3-2h-2v-2h2zm-9-19h6v2h-6zm4 4v5h-2v-5zm-40-8h9v2a3 3 0 0 1 -3 3h-5a1 1 0 0 1 -1-1zm.236-2 1.164-5.442a3.429 3.429 0 0 1 5.124-2l.438.274a5.414 5.414 0 0 0 6.032-.187 3.429 3.429 0 0 1 5.151 1.455l1.555 5.9zm10.764 2h9v4a1 1 0 0 1 -1 1h-5a3 3 0 0 1 -3-3zm13 1.5a1.5 1.5 0 0 1 -1.5 1.5h-.5v-3h.5a1.5 1.5 0 0 1 1.5 1.5zm-19-15.5a.989.989 0 0 0 .394-.081l4.672-2a6.9 6.9 0 0 1 9.52 5.209l.064 1.529a5.431 5.431 0 0 0 -7.822-1.641 3.42 3.42 0 0 1 -3.809.118l-.437-.274a5.426 5.426 0 0 0 -8.127 3.229l-.255 1.211-.2-1.368a6.007 6.007 0 0 1 6-5.932zm-7.5 17a1.5 1.5 0 0 1 0-3h.5v3zm2.682 3.872a2.957 2.957 0 0 0 .818.128h5a4.982 4.982 0 0 0 4-2.031 4.982 4.982 0 0 0 4 2.031h5a2.957 2.957 0 0 0 .818-.128 9.994 9.994 0 0 1 -19.636 0zm9.818 10.128a11.922 11.922 0 0 0 4-.7v5.286l-4 4-4-4v-5.286a11.922 11.922 0 0 0 4 .7zm-19 11a5.006 5.006 0 0 1 5-5h2v3a1 1 0 0 0 1 1h4.219l.811 3.242a1 1 0 0 0 .97.758.983.983 0 0 0 .316-.052l3-1-.632-1.9-1.976.658-.738-2.952a1 1 0 0 0 -.97-.754h-4v-2h4.586l4.414 4.414v8.586h-18zm20 8v-8.586l4.414-4.414h4.586v2h-4a1 1 0 0 0 -.97.758l-.738 2.952-1.976-.658-.632 1.9 3 1a.983.983 0 0 0 .316.048 1 1 0 0 0 .97-.758l.811-3.242h4.219a1 1 0 0 0 1-1v-3h2a4.91 4.91 0 0 1 1.155.157 12.008 12.008 0 0 0 -.155 1.843v11zm36 3h-20v-2h20zm-14.414-4h-5.586v-10a9.917 9.917 0 0 1 1.392-5.06 5.022 5.022 0 0 0 2.492 2.573 8.977 8.977 0 0 0 -1.884 5.487v3a1 1 0 0 0 .293.707zm.414-14a3 3 0 1 1 3-3 3 3 0 0 1 -3 3zm4.9-1.995a4.926 4.926 0 0 0 -.922-4h5.022a5.008 5.008 0 0 1 4.9 4h-8.9c-.034-.005-.068 0-.1 0z"/></svg>
