<svg height="512pt" viewBox="0 -45 512 512" width="512pt" xmlns="http://www.w3.org/2000/svg"><g fill-rule="evenodd"><path d="m147.558594 27.375v165.277344l100.324218 22.164062 104.488282-22.164062v-165.277344c0-11.183594-9.125-20.320312-20.292969-20.320312-55.972656 0-109.617187 0-164.230469 0-11.164062 0-20.289062 9.136718-20.289062 20.320312zm0 0" fill="#ffcc73"/><path d="m147.558594 27.375v165.277344h29.472656v-165.277344c0-11.183594 9.125-20.320312 20.292969-20.320312h-29.476563c-11.164062 0-20.289062 9.136718-20.289062 20.320312zm0 0" fill="#f59556"/><path d="m219.285156 51.980469h58.863282c5.269531 0 9.605468-4.34375 9.605468-9.648438v-35.277343h-78.105468v35.273437c0 5.308594 4.335937 9.652344 9.636718 9.652344zm0 0" fill="#e8e8e8"/><path d="m209.648438 42.328125c0 5.308594 4.335937 9.648437 9.636718 9.648437h18.136719c-5.296875 0-9.632813-4.339843-9.632813-9.648437v-35.273437h-18.140624zm0 0" fill="#ccc"/><path d="m51.625 212.972656v165.277344l100.324219 22.164062 104.488281-22.164062 17.996094-88.34375-17.996094-76.933594c-2.550781-10.898437-9.125-20.320312-20.289062-20.320312-55.972657 0-109.621094 0-164.234376 0-11.164062 0-20.289062 9.136718-20.289062 20.320312zm0 0" fill="#f59556"/><path d="m51.625 212.972656v165.277344c8.132812-.226562 18.054688-.113281 29.476562-.253906v-165.023438c0-11.183594 9.125-20.320312 20.289063-20.320312h-29.476563c-11.164062 0-20.289062 9.136718-20.289062 20.320312zm0 0" fill="#d65036"/><path d="m123.355469 237.578125h58.859375c5.300781 0 9.605468-4.34375 9.605468-9.648437v-35.277344h-78.074218v35.277344c0 5.304687 4.308594 9.648437 9.609375 9.648437zm0 0" fill="#e8e8e8"/><path d="m113.746094 227.929688c0 5.304687 4.308594 9.648437 9.609375 9.648437h18.136719c-5.300782 0-9.636719-4.34375-9.636719-9.648437v-35.277344h-18.109375zm0 0" fill="#ccc"/><path d="m256.441406 212.972656v165.277344c21.480469-.59375 59.652344 22.25 100.320313 22.164062 33.074219-.054687 66.488281-22.785156 104.492187-22.675781v-164.765625c0-11.183594-9.125-20.320312-20.292968-20.320312-55.972657 0-109.617188 0-164.230469 0-11.164063 0-20.289063 9.136718-20.289063 20.320312zm0 0" fill="#55b8e6"/><path d="m256.441406 212.972656v165.277344l29.472656-.253906v-165.023438c0-11.183594 9.125-20.320312 20.289063-20.320312h-29.472656c-11.164063 0-20.289063 9.136718-20.289063 20.320312zm0 0" fill="#507fcf"/><path d="m328.167969 237.578125h58.835937c5.296875 0 9.632813-4.34375 9.632813-9.648437v-35.277344h-78.105469v35.277344c0 5.304687 4.335938 9.648437 9.636719 9.648437zm0 0" fill="#e8e8e8"/><path d="m318.53125 227.929688c0 5.304687 4.335938 9.648437 9.636719 9.648437h18.136719c-5.296876 0-9.632813-4.34375-9.632813-9.648437v-35.277344h-18.140625zm0 0" fill="#ccc"/><path d="m25.496094 377.996094c-9.863282 0-17.9375 8.085937-17.9375 17.992187 0 9.875 8.074218 17.964844 17.9375 17.964844h460.980468c3.9375 0 7.621094-1.277344 10.570313-3.464844 4.476563-3.292969 7.394531-8.570312 7.394531-14.5 0-5.960937-2.917968-11.238281-7.394531-14.53125-2.949219-2.15625-6.632813-3.460937-10.570313-3.460937zm0 0" fill="#808080"/><path d="m25.496094 377.996094c-9.863282 0-17.9375 8.085937-17.9375 17.992187 0 9.875 8.074218 17.964844 17.9375 17.964844h33.269531c-9.859375 0-17.9375-8.089844-17.9375-17.964844 0-8.058593 5.355469-14.925781 12.667969-17.199219.058594 0 .113281-.027343.199218-.054687 1.613282-.484375 3.316407-.738281 5.070313-.738281zm0 0" fill="#525252"/></g><path d="m486.476562 370.941406h-17.667968v-157.488281c0-15.359375-12.492188-27.855469-27.847656-27.855469h-81.03125l.027343-57.445312c0-4.179688-3.382812-7.566406-7.554687-7.570313-.003906 0-.003906 0-.003906 0-4.171876 0-7.554688 3.386719-7.558594 7.5625l-.023438 57.453125h-68.085937c-7.996094 0-15.207031 3.390625-20.292969 8.808594-5.082031-5.417969-12.296875-8.808594-20.289062-8.808594h-81.035157v-157.742187c0-7.015625 5.710938-12.722657 12.734375-12.722657h34.246094v27.707032c0 9.492187 7.710938 17.214844 17.191406 17.214844h58.859375c9.464844 0 17.167969-7.722657 17.167969-17.214844v-27.707032h36.765625c7.019531 0 12.734375 5.707032 12.734375 12.726563v64.757813c0 4.179687 3.382812 7.566406 7.558594 7.566406 4.171875 0 7.554687-3.386719 7.554687-7.566406v-64.761719c0-15.359375-12.492187-27.855469-27.847656-27.855469h-164.230469c-15.355468 0-27.847656 12.496094-27.847656 27.855469v157.742187h-68.085938c-15.351562 0-27.84375 12.496094-27.84375 27.855469v157.488281h-18.574218c-14.058594 0-25.496094 11.453125-25.496094 25.53125 0 14.074219 11.4375 25.527344 25.496094 25.527344h460.980468c14.074219 0 25.523438-11.453125 25.523438-25.527344 0-14.078125-11.449219-25.53125-25.523438-25.53125zm-206.277343-328.101562c0 1.128906-.9375 2.085937-2.050781 2.085937h-58.863282c-1.125 0-2.078125-.957031-2.078125-2.085937v-27.707032h62.992188zm45.890625 157.890625h62.988281v27.707031c0 1.113281-.949219 2.054688-2.074219 2.054688h-58.835937c-1.128907 0-2.078125-.941407-2.078125-2.054688zm-49.359375 0h34.246093v27.707031c0 9.476562 7.710938 17.1875 17.191407 17.1875h58.832031c9.480469 0 17.191406-7.710938 17.191406-17.1875v-27.707031h36.769532c7.019531 0 12.734374 5.707031 12.734374 12.722656v157.488281h-189.699218v-157.488281c0-7.015625 5.714844-12.722656 12.734375-12.722656zm-155.425781 0h62.960937v27.707031c0 1.113281-.9375 2.054688-2.050781 2.054688h-58.859375c-1.132813 0-2.050781-.921876-2.050781-2.054688zm365.171874 206.136719h-460.980468c-5.726563 0-10.382813-4.664063-10.382813-10.394532 0-5.734375 4.65625-10.398437 10.382813-10.398437h106.417968c4.171876 0 7.554688-3.386719 7.554688-7.566407 0-4.179687-3.382812-7.566406-7.554688-7.566406h-72.730468v-157.488281c0-7.015625 5.710937-12.722656 12.730468-12.722656h34.277344v27.707031c0 9.476562 7.699219 17.1875 17.164063 17.1875h58.859375c9.464844 0 17.164062-7.710938 17.164062-17.1875v-27.707031h36.769532c7.019531 0 12.734374 5.707031 12.734374 12.722656v157.488281h-82.339843c-4.171875 0-7.554688 3.386719-7.554688 7.566406 0 4.179688 3.382813 7.566407 7.554688 7.566407h319.933593c5.738282 0 10.410157 4.664062 10.410157 10.394531 0 5.734375-4.671875 10.398438-10.410157 10.398438zm0 0"/></svg>