<svg height="512" viewBox="0 0 64 64" width="512" xmlns="http://www.w3.org/2000/svg"><path d="m53 56h8v4h-8z" fill="#cc7400"/><path d="m61 52v4h-8-17-8-17-8v-4h5 24 24z" fill="#ee8700"/><path d="m32 38h24v14h-24z" fill="#ffb655"/><path d="m47 34h9v4h-9z" fill="#ffa733"/><path d="m32 20h24v14h-24z" fill="#ff9811"/><path d="m47 16h9v4h-9z" fill="#ee8700"/><path d="m47 38v4l-3-2-3 2v-4-4h6z" fill="#e6e7e8"/><path d="m47 20v4l-3-2-3 2v-4-4h6z" fill="#e6e7e8"/><path d="m32 34h9v4h-9z" fill="#ffa733"/><path d="m32 16h9v4h-9z" fill="#ee8700"/><path d="m28 56h8v4h-8z" fill="#cc7400"/><path d="m8 38h24v14h-24z" fill="#ff9811"/><path d="m23 34h9v4h-9z" fill="#ee8700"/><path d="m32 20v14h-9-6-9v-14h9 6z" fill="#ffb655"/><path d="m23 16h9v4h-9z" fill="#ffa733"/><path d="m23 20v4l-3-2-3 2v-4-4h6z" fill="#e6e7e8"/><path d="m8 34h9v4h-9z" fill="#ee8700"/><path d="m8 16h9v4h-9z" fill="#ffa733"/><path d="m3 56h8v4h-8z" fill="#cc7400"/><path d="m23 38v4l-3-2-3 2v-4-4h6z" fill="#e6e7e8"/><g fill="#aa6100"><path d="m3 56h8v2h-8z"/><path d="m28 56h8v2h-8z"/><path d="m53 56h8v2h-8z"/></g><path d="m61 51h-4v-35a1 1 0 0 0 -1-1h-48a1 1 0 0 0 -1 1v35h-4a1 1 0 0 0 -1 1v8a1 1 0 0 0 1 1h8a1 1 0 0 0 1-1v-3h15v3a1 1 0 0 0 1 1h8a1 1 0 0 0 1-1v-3h15v3a1 1 0 0 0 1 1h8a1 1 0 0 0 1-1v-8a1 1 0 0 0 -1-1zm-45-14h-7v-2h7zm-7-16h7v3a1 1 0 0 0 1.555.832l2.445-1.632 2.445 1.63a1 1 0 0 0 1.555-.83v-3h7v12h-22zm9-4h4v5.131l-1.445-.963a1 1 0 0 0 -1.11 0l-1.445.963zm37 20h-7v-2h7zm-15 0h-7v-2h7zm2-2h4v5.131l-1.445-.963a1 1 0 0 0 -1.11 0l-1.445.963zm13-2h-22v-12h7v3a1 1 0 0 0 1.555.832l2.445-1.632 2.445 1.63a1 1 0 0 0 1.555-.83v-3h7zm-9-10.869-1.445-.963a1 1 0 0 0 -1.11 0l-1.445.963v-5.131h4zm-6-3.131h-7v-2h7zm-22 16h4v5.131l-1.445-.963a1 1 0 0 0 -1.11 0l-1.445.963zm6 0h7v2h-7zm9 4h7v3a1 1 0 0 0 1.555.832l2.445-1.632 2.445 1.63a1 1 0 0 0 1.555-.83v-3h7v12h-22zm22-20h-7v-2h7zm-24 0h-7v-2h7zm-15-2v2h-7v-2zm-7 22h7v3a1 1 0 0 0 1.555.832l2.445-1.632 2.445 1.63a1 1 0 0 0 1.555-.83v-3h7v12h-22zm-5 14h56v2h-56zm6 6h-6v-2h6zm25 0h-6v-2h6zm19 0v-2h6v2z"/></svg>