<?xml version="1.0" encoding="iso-8859-1"?>
<!-- Generator: Adobe Illustrator 19.0.0, SVG Export Plug-In . SVG Version: 6.00 Build 0)  -->
<svg version="1.1" id="Capa_1" xmlns="http://www.w3.org/2000/svg" xmlns:xlink="http://www.w3.org/1999/xlink" x="0px" y="0px"
	 viewBox="0 0 512 512" style="enable-background:new 0 0 512 512;" xml:space="preserve">
<g>
	<polygon style="fill:#F5F5F5;" points="196.266,366.933 170.666,503.467 170.666,341.333 	"/>
	<polygon style="fill:#F5F5F5;" points="238.933,341.333 238.933,503.467 213.333,366.933 	"/>
</g>
<polygon style="fill:#00448F;" points="213.333,366.933 238.933,503.467 170.666,503.467 196.266,366.933 170.666,341.333 
	204.117,307.883 205.482,307.883 238.933,341.333 "/>
<path style="fill:#D3D3D3;" d="M281.6,195.925v52.224c0.017,2.603-0.179,5.197-0.597,7.765c-0.606,5.35-1.988,10.581-4.096,15.531
	c-9.361,22.101-31.036,36.454-55.04,36.437h-16.384L204.8,307.2l-0.683,0.683h-16.384c-24.004,0.017-45.679-14.336-55.04-36.437
	c-2.108-4.949-3.49-10.18-4.096-15.531c-0.418-2.569-0.614-5.163-0.597-7.765v-52.224c0-14.14,11.46-25.6,25.6-25.6H256
	C270.139,170.325,281.6,181.786,281.6,195.925z"/>
<path style="fill:#FED8B5;" d="M128,162.133h-25.6c-9.412-0.026-17.041-7.654-17.067-17.067c0.068-9.395,7.671-16.998,17.067-17.067
	H128V162.133z"/>
<polygon style="fill:#C4C4C4;" points="332.8,256 315.733,221.867 341.333,221.867 298.666,162.133 281.6,162.133 281.6,195.925 
	281.6,248.149 281.6,256 307.2,256 "/>
<g>
	<path style="fill:#FED8B5;" d="M128.597,255.915c-0.418-2.569-0.614-5.163-0.597-7.765V256L128.597,255.915z"/>
	<path style="fill:#FED8B5;" d="M281.002,255.915L281.6,256v-7.851C281.617,250.752,281.412,253.346,281.002,255.915z"/>
</g>
<polygon style="fill:#C4C4C4;" points="68.266,221.867 93.866,221.867 76.8,256 102.4,256 128,256 128,248.149 128,195.925 
	128,162.133 110.933,162.133 "/>
<g>
	<path style="fill:#FED8B5;" d="M281.6,128v-17.067l8.533-8.533V68.267c0-32.99-26.743-59.733-59.733-59.733h-51.2
		c-32.99,0-59.733,26.743-59.733,59.733v42.667l8.533,8.533v76.459c0-14.14,11.46-25.6,25.6-25.6H256c14.14,0,25.6,11.46,25.6,25.6
		V128z M174.933,145.067c-7.066,0-12.8-5.734-12.8-12.8c0-7.066,5.734-12.8,12.8-12.8s12.8,5.734,12.8,12.8
		C187.733,139.332,181.999,145.067,174.933,145.067z M234.666,145.067c-7.066,0-12.8-5.734-12.8-12.8c0-7.066,5.734-12.8,12.8-12.8
		c7.066,0,12.8,5.734,12.8,12.8C247.466,139.332,241.732,145.067,234.666,145.067z"/>
	<path style="fill:#FED8B5;" d="M324.266,145.067c-0.068,9.395-7.671,16.998-17.067,17.067h-25.6V128h25.6
		C316.612,128.026,324.232,135.654,324.266,145.067z"/>
	<path style="fill:#FED8B5;" d="M413.098,268.032c3.243-3.157,5.06-7.501,5.035-12.032v-17.067h9.301
		c13.696-0.017,24.815,11.068,24.832,24.764c0,0.026,0,0.043,0,0.068v0.768c0,14.14-11.46,25.6-25.6,25.6h-25.6V307.2h-51.2v-42.667
		c0-14.14,11.46-25.6,25.6-25.6H384V256c0.026,9.412,7.654,17.041,17.067,17.067C405.589,273.092,409.933,271.275,413.098,268.032z"
		/>
</g>
<g>
	<path style="fill:#F5F5F5;" d="M401.066,307.2v145.067c0,28.279-22.921,51.2-51.2,51.2V307.2H401.066z"/>
	<path style="fill:#F5F5F5;" d="M315.733,503.467h-76.8V341.333l-33.451-33.451h16.384c24.004,0.017,45.679-14.336,55.04-36.437
		l4.693,1.621c37.7,0,68.267,30.566,68.267,68.267v162.133H315.733z"/>
	<path style="fill:#F5F5F5;" d="M132.693,271.445c9.361,22.101,31.036,36.454,55.04,36.437h16.384l-33.451,33.451v162.133H59.733
		V341.333c0-37.7,30.566-68.267,68.267-68.267L132.693,271.445z"/>
</g>
<g>
	<circle style="fill:#454545;" cx="234.666" cy="132.267" r="12.8"/>
	<circle style="fill:#454545;" cx="174.933" cy="132.267" r="12.8"/>
</g>
<path style="fill:#168DE2;" d="M409.6,179.2V256c0.017,2.304-0.939,4.506-2.645,6.059c-1.527,1.613-3.669,2.509-5.888,2.475
	c-4.71,0-8.533-3.823-8.533-8.533v-76.8H409.6z"/>
<rect x="392.533" y="145.067" style="fill:#F5F5F5;" width="17.067" height="17.067"/>
<path style="fill:#454545;" d="M418.133,128H384c-4.71,0-8.533,3.823-8.533,8.533V256c0.043,14.123,11.477,25.557,25.6,25.6
	c14.14,0,25.6-11.46,25.6-25.6V136.533C426.666,131.823,422.843,128,418.133,128z M392.533,145.067H409.6v17.067h-17.067V145.067z
	 M409.6,256c0.017,2.304-0.939,4.506-2.645,6.059c-1.527,1.613-3.669,2.509-5.888,2.475c-4.71,0-8.533-3.823-8.533-8.533v-76.8
	H409.6V256z"/>
<g>
	<rect x="392.533" y="59.733" style="fill:#168DE2;" width="17.067" height="34.133"/>
	<rect x="384" y="68.267" style="fill:#168DE2;" width="34.133" height="17.067"/>
</g>
<g>
	<rect x="85.333" y="349.867" style="fill:#D3D3D3;" width="17.067" height="153.6"/>
	<rect x="307.2" y="349.867" style="fill:#D3D3D3;" width="17.067" height="153.6"/>
</g>
<g>
	<rect x="170.666" y="34.133" style="fill:#EBB691;" width="68.267" height="17.067"/>
	<rect x="170.666" y="68.267" style="fill:#EBB691;" width="68.267" height="17.067"/>
</g>
<path style="fill:#B0B0B0;" d="M204.8,223.616h-0.068c-11.861,0.026-23.236-4.71-31.573-13.141l12.1-12.032
	c5.146,5.205,12.16,8.124,19.473,8.107l0,0c7.364,0.026,14.43-2.901,19.627-8.124l12.066,12.066
	C228.053,218.914,216.67,223.633,204.8,223.616z"/>
<circle cx="234.666" cy="132.267" r="12.8"/>
<circle cx="174.933" cy="132.267" r="12.8"/>
<path d="M384,128c-4.71,0-8.533,3.823-8.533,8.533V230.4c-18.85,0-34.133,15.283-34.133,34.133v28.672
	c-13.158-16.333-32.435-26.564-53.333-28.314c0-0.111,0-0.213,0.068-0.324H332.8c4.71,0.026,8.55-3.772,8.576-8.491
	c0.009-1.34-0.299-2.662-0.896-3.857l-10.94-21.82h11.793c4.71,0,8.533-3.831,8.525-8.542c0-1.775-0.555-3.507-1.587-4.949
	l-33.843-47.394c4.07-1.135,7.774-3.302,10.752-6.298c4.907-4.762,7.654-11.315,7.62-18.15c0-14.14-11.46-25.6-25.6-25.6h-17.067
	v-5.001l6.033-6.033c1.596-1.596,2.5-3.772,2.5-6.033V68.267C298.624,30.583,268.083,0.043,230.4,0h-51.2
	c-37.683,0.043-68.224,30.583-68.267,68.267v42.667c0,2.261,0.896,4.437,2.5,6.033l2.5,2.5H102.4
	c-14.106,0.077-25.523,11.494-25.6,25.6c0.068,11.298,7.535,21.222,18.381,24.405l-33.852,47.403
	c-2.756,3.823-1.894,9.156,1.929,11.913c1.459,1.05,3.209,1.613,5.009,1.613h11.793l-10.897,21.786
	c-2.108,4.215-0.401,9.344,3.823,11.452c1.178,0.589,2.483,0.896,3.814,0.896h44.749c0,0.111,0,0.213,0.068,0.324
	c-39.774,3.345-70.366,36.565-70.417,76.476v162.133c0,4.71,3.823,8.533,8.533,8.533h290.133
	c32.973-0.034,59.699-26.761,59.733-59.733v-153.6h17.067c18.961-0.111,34.244-15.573,34.133-34.534c0-0.119,0-0.239,0-0.367
	c-0.017-18.423-14.942-33.348-33.365-33.365h-0.768v-93.867c0-4.71-3.823-8.533-8.533-8.533H384z M392.533,179.2H409.6V256
	c0,2.295-0.939,4.497-2.611,6.076c-1.562,1.596-3.695,2.483-5.922,2.458c-4.71,0-8.533-3.823-8.533-8.533V179.2z M409.6,145.067
	v17.067h-17.067v-17.067H409.6z M308.053,225.681l10.897,21.786h-28.817v-51.541c-0.026-9.66-4.164-18.842-11.383-25.259h15.531
	l30.473,42.667h-9.02c-4.71-0.026-8.55,3.772-8.576,8.491C307.14,223.164,307.456,224.486,308.053,225.681z M307.2,136.533
	c4.71,0,8.533,3.823,8.533,8.533c0,2.295-0.939,4.497-2.611,6.076c-1.562,1.596-3.695,2.483-5.922,2.458h-17.067v-17.067H307.2z
	 M128,68.267c0.026-28.262,22.938-51.174,51.2-51.2h51.2c28.262,0.026,51.174,22.938,51.2,51.2v30.601l-6.033,6.033
	c-1.604,1.596-2.5,3.772-2.5,6.033v55.603c-5.163-3.072-11.059-4.71-17.067-4.745H153.6c-6.007,0.034-11.904,1.673-17.067,4.745
	v-47.07c0-2.261-0.896-4.437-2.5-6.033L128,107.401V68.267z M183.808,316.126l-4.608,4.608v-4.949
	C180.719,315.972,182.263,316.041,183.808,316.126z M226.867,341.333L207.3,360.9c-1.587,1.579-2.492,3.729-2.5,5.973
	c-0.009-2.244-0.913-4.395-2.5-5.973l-19.567-19.567l22.067-22.067L226.867,341.333z M179.2,361.933l7.851,7.851l-7.851,41.865
	V361.933z M204.646,368.503c0.102-0.503,0.154-1.015,0.154-1.527c0,0.512,0.051,1.024,0.154,1.527l23.74,126.43h-47.787
	L204.646,368.503z M222.566,369.783l7.851-7.851v49.724L222.566,369.783z M230.4,320.734l-4.608-4.608
	c1.545-0.085,3.089-0.154,4.608-0.341V320.734z M221.866,299.349h-13.764c-2.116-0.887-4.489-0.887-6.605,0h-13.764
	c-20.574,0.051-39.168-12.254-47.172-31.215c-1.792-4.19-2.961-8.619-3.482-13.141c-0.009-0.171-0.034-0.333-0.06-0.503
	c-0.341-2.099-0.503-4.215-0.486-6.34v-52.224c0-9.429,7.637-17.067,17.067-17.067H256c9.429,0,17.067,7.637,17.067,17.067v52.224
	c0.009,2.287-0.179,4.574-0.546,6.827c-0.512,4.523-1.69,8.943-3.473,13.133C261.051,287.078,242.449,299.392,221.866,299.349z
	 M96.486,138.991c1.553-1.596,3.686-2.483,5.914-2.458h17.067V153.6H102.4c-4.71,0-8.533-3.823-8.533-8.533
	C93.858,142.763,94.805,140.57,96.486,138.991z M101.128,217.378c-1.562-2.517-4.309-4.045-7.262-4.045h-9.02l30.473-42.667h15.531
	c-7.219,6.417-11.358,15.599-11.383,25.259v51.541h-28.86l10.94-21.786C102.852,223.027,102.698,219.887,101.128,217.378z
	 M68.266,341.333C68.3,308.361,95.027,281.634,128,281.6v-0.657c7.526,13.756,19.593,24.482,34.133,30.345v183.646H102.4V349.867
	H85.333v145.067H68.266V341.333z M341.333,494.933h-17.067V349.867H307.2v145.067h-59.733V311.287
	c14.541-5.862,26.607-16.58,34.133-30.336v0.649c32.973,0.034,59.699,26.761,59.733,59.733V494.933z M358.4,494.08V349.867h17.067
	V332.8H358.4v-17.067h34.133v136.533c-0.026,20.267-14.285,37.726-34.133,41.805V494.08z M427.434,247.467
	c9.105,0.102,16.41,7.569,16.307,16.683c0,0.128-0.009,0.256-0.009,0.384c0,9.429-7.637,17.067-17.067,17.067h-25.6
	c-4.71,0-8.533,3.823-8.533,8.533v8.533H358.4v-34.133c0-9.429,7.637-17.067,17.067-17.067V256c0,14.14,11.46,25.6,25.6,25.6
	c14.106-0.068,25.532-11.494,25.6-25.6v-8.533H427.434z"/>
<polygon points="392.533,59.733 392.533,68.267 384,68.267 384,85.333 392.533,85.333 392.533,93.867 409.6,93.867 409.6,85.333 
	418.133,85.333 418.133,68.267 409.6,68.267 409.6,59.733 "/>
<rect x="170.666" y="34.133" width="68.267" height="17.067"/>
<rect x="170.666" y="68.267" width="68.267" height="17.067"/>
<path d="M204.8,206.549L204.8,206.549c-7.313,0.017-14.327-2.901-19.473-8.107l-12.1,12.032
	c8.337,8.431,19.712,13.167,31.573,13.141l0,0c11.887,0.034,23.287-4.693,31.667-13.124l-12.066-12.066
	C219.213,203.639,212.155,206.566,204.8,206.549z"/>
<g>
</g>
<g>
</g>
<g>
</g>
<g>
</g>
<g>
</g>
<g>
</g>
<g>
</g>
<g>
</g>
<g>
</g>
<g>
</g>
<g>
</g>
<g>
</g>
<g>
</g>
<g>
</g>
<g>
</g>
</svg>
