<svg id="Capa_1" enable-background="new 0 0 508 508" height="512" viewBox="0 0 508 508" width="512" xmlns="http://www.w3.org/2000/svg"><path d="m244.73 500.5h-194.14c-8.731 0-15.808-7.078-15.808-15.808v-47.212c0-44.183 35.817-80 80-80h65.757c44.183 0 80 35.817 80 80v47.212c-.001 8.73-7.078 15.808-15.809 15.808z" fill="#fd5426"/><path d="m180.538 357.48h-30c44.183 0 80 35.817 80 80v47.212c0 8.73-7.077 15.808-15.808 15.808h30c8.731 0 15.808-7.078 15.808-15.808v-47.212c0-44.183-35.817-80-80-80z" fill="#ef4424"/><path d="m402.252 7.5c-52.116 0-94.365 42.249-94.365 94.365 0 19.132 5.699 36.93 15.485 51.801l-15.131 30.758c-2.005 7.484 4.843 14.332 12.327 12.327l31.025-15.262c14.636 9.331 32.015 14.74 50.659 14.74 52.116 0 94.365-42.248 94.365-94.365s-42.249-94.364-94.365-94.364z" fill="#b6c4cf"/><path d="m402.252 7.5c-5.105 0-10.114.411-15 1.191 44.986 7.187 79.365 46.163 79.365 93.173 0 47.001-34.364 85.97-79.337 93.168 4.878.778 9.875 1.196 14.972 1.196 52.116 0 94.365-42.248 94.365-94.364s-42.249-94.364-94.365-94.364z" fill="#8d9ca8"/><g fill="#fed2a4"><path d="m148.186 389.231h-1.143c-11.88 0-21.511-9.631-21.511-21.511v-22.808c0-11.88 9.631-21.511 21.511-21.511h1.143c11.88 0 21.511 9.631 21.511 21.511v22.808c0 11.881-9.631 21.511-21.511 21.511z"/><ellipse cx="253.345" cy="224.266" rx="31.117" ry="31.117" transform="matrix(.707 -.707 .707 .707 -84.377 244.828)"/><ellipse cx="42.501" cy="224.266" rx="31.117" ry="31.117" transform="matrix(.23 -.973 .973 .23 -185.531 214.104)"/><path d="m145.789 339.085c-56.508 0-102.317-45.809-102.317-102.317l.468-68.579c.231-33.804 27.699-61.085 61.504-61.085h81.62c34.133 0 61.737 27.794 61.504 61.925l-.463 67.739c.001 56.508-45.808 102.317-102.316 102.317z"/></g><path d="m187.065 107.103h-30c34.133 0 61.737 27.794 61.504 61.925l-.463 67.739c0 51.412-37.921 93.961-87.317 101.219 4.896.72 9.904 1.098 15 1.098 56.508 0 102.317-45.809 102.317-102.316l.463-67.739c.233-34.132-27.372-61.926-61.504-61.926z" fill="#ffbd86"/><path d="m180.445 59.333h-68.666c-37.541 0-67.973 30.433-67.973 67.973v40.07l72.275-7.252c19.97-2.004 40.091-2.004 60.062 0l72.275 7.252v-40.07c0-37.54-30.432-67.973-67.973-67.973z" fill="#fd5426"/><path d="m86.081 160.124-42.275 4.242v3.01l72.275-7.252c5.002-.502 10.014-.878 15.031-1.128-15.01-.749-30.063-.373-45.031 1.128z" fill="#ef4424"/><path d="m180.445 59.333h-30c37.541 0 67.973 30.433 67.973 67.973v37.06l30 3.01v-40.07c0-37.54-30.432-67.973-67.973-67.973z" fill="#ef4424"/><path d="m114.635 142.687-61.988 5.934c-7.816.748-13.768 7.024-13.768 14.519 0 8.635 7.816 15.381 16.822 14.519l58.934-5.642c20.932-2.004 42.022-2.004 62.954 0l58.934 5.642c9.006.862 16.822-5.884 16.822-14.519 0-7.495-5.951-13.771-13.768-14.519l-61.988-5.934c-20.932-2.004-42.022-2.004-62.954 0z" fill="#fd6930"/><path d="m239.577 148.621-30.722-2.941v2.872l.722.069c7.817.749 13.768 7.024 13.768 14.52 0 5.371-3.026 10.008-7.479 12.542l20.658 1.978c9.006.862 16.822-5.884 16.822-14.519-.001-7.497-5.952-13.773-13.769-14.521z" fill="#fd5426"/><path d="m210.256 443.009h-26c-4.395 0-7.957-3.563-7.957-7.957v-10.275c0-4.395 3.563-7.957 7.957-7.957h26c4.395 0 7.957 3.563 7.957 7.957v10.275c0 4.395-3.562 7.957-7.957 7.957z" fill="#fff3ef"/><path d="m454.482 121.843-8.317-2.877c3.329-9.957 3.034-20.268-.157-29.503l8.311-2.868c2.368-.817 3.563-3.479 2.568-5.778-6.048-13.971-17.074-24.918-31.079-30.856-2.297-.974-4.941.225-5.752 2.585l-2.857 8.313c-9.956-3.335-20.266-3.046-29.503.14l-2.865-8.318c-.811-2.356-3.455-3.566-5.743-2.579-13.996 6.04-24.964 17.07-30.913 31.09-.977 2.303.232 4.954 2.601 5.757l8.306 2.817c-3.35 9.963-3.068 20.283.115 29.529l-8.319 2.86c-2.366.814-3.563 3.469-2.577 5.769 6.014 14.018 16.949 25.228 30.918 31.235 2.336 1.004 5.032-.162 5.842-2.572l2.825-8.4.028-.083.057-.169c9.954 3.347 20.264 3.068 29.504-.107l2.855 8.321c.809 2.357 3.451 3.57 5.741 2.586 14.034-6.037 25.029-17.087 30.985-31.142.974-2.295-.219-4.936-2.574-5.75zm-57.498-.734c-9.211-3.103-14.18-13.122-11.077-22.334 3.104-9.211 13.122-14.18 22.333-11.077 9.211 3.104 14.18 13.122 11.077 22.333-3.103 9.213-13.122 14.182-22.333 11.078z" fill="#26a6fe"/><path d="m454.482 121.843-8.317-2.877c3.33-9.957 3.035-20.268-.157-29.503l8.311-2.868c2.384-.822 3.554-3.504 2.551-5.817-6.046-13.939-17.049-24.865-31.023-30.801-2.311-.982-4.974.193-5.79 2.568l-2.857 8.313c-2.093-.701-4.202-1.232-6.314-1.62 4.28 3.619 8.027 7.837 11.127 12.55 4.239 6.444 1.286 15.159-6.005 17.674.632 1.829 1.145 3.701 1.544 5.603 2.697 4.323 3.515 9.772 1.765 14.967-.441 1.308-1.035 2.52-1.732 3.646-.366 1.768-.833 3.533-1.42 5.288 7.311 2.529 10.269 11.246 6.06 17.737-3.131 4.829-6.94 9.147-11.307 12.844 2.232-.416 4.425-.987 6.56-1.72l2.855 8.321c.818 2.382 3.494 3.555 5.806 2.557 13.99-6.037 24.952-17.06 30.903-31.074.98-2.308-.19-4.968-2.56-5.788z" fill="#0593fc"/><path d="m402.252 0c-56.169 0-101.865 45.696-101.865 101.865 0 18.508 4.969 36.477 14.409 52.244l-13.61 27.665-.189.71c-1.644 6.134.057 12.477 4.547 16.966 3.363 3.363 7.765 5.16 12.34 5.16 1.533 0 3.086-.202 4.626-.614l.71-.19 27.992-13.771c15.472 8.972 33.026 13.694 51.041 13.694 56.168 0 101.864-45.696 101.864-101.864 0-56.169-45.697-101.865-101.865-101.865zm0 188.729c-16.585 0-32.709-4.69-46.629-13.564l-3.557-2.268-33.943 16.697c-.967.081-1.638-.417-1.974-.752-.336-.336-.831-1.004-.753-1.975l16.6-33.741-2.359-3.584c-9.322-14.167-14.25-30.653-14.25-47.678 0-47.897 38.968-86.865 86.865-86.865s86.864 38.967 86.864 86.865c.001 47.898-38.966 86.865-86.864 86.865z"/><path d="m255.995 185.75.069-9.078c3.068-3.846 4.781-8.62 4.781-13.532 0-5.198-1.848-9.978-4.952-13.761.011-.168.026-.335.026-.506v-21.566c0-41.616-33.857-75.473-75.474-75.473h-35.935c-4.142 0-7.5 3.358-7.5 7.5s3.358 7.5 7.5 7.5h35.935c33.345 0 60.474 27.128 60.474 60.473v13.937c-.21-.026-.414-.068-.626-.089l-61.988-5.934c-21.361-2.045-43.022-2.045-64.384 0l-61.988 5.934c-.212.021-.416.063-.626.089v-13.937c0-33.345 27.128-60.473 60.473-60.473h2.73c4.142 0 7.5-3.358 7.5-7.5s-3.358-7.5-7.5-7.5h-2.73c-41.616 0-75.473 33.857-75.473 75.473v22.102c-3.089 3.778-4.927 8.547-4.927 13.731 0 5.102 1.852 10.053 5.147 13.971-.048.333-.082.671-.085 1.017l-.064 8.011c-18.393 2.944-32.494 18.917-32.494 38.126 0 20.14 15.5 36.719 35.196 38.458 9.527 39.161 40.1 70.174 79.017 80.322-.04.621-.064 1.243-.064 1.868v5.067h-3.251c-48.248 0-87.5 39.252-87.5 87.5v47.212c0 12.852 10.456 23.308 23.308 23.308h194.14c12.852 0 23.308-10.456 23.308-23.308v-47.212c0-48.248-39.252-87.5-87.5-87.5h-3.341v-5.067c0-.973-.048-1.938-.143-2.896 15.022-4.459 29.035-12.092 41.01-22.568 3.118-2.728 3.434-7.466.707-10.583-2.728-3.119-7.467-3.434-10.583-.707-11.735 10.267-25.734 17.388-40.708 20.904-.692.048-1.385.197-2.064.448-6.411 1.355-12.982 2.073-19.627 2.073-52.282 0-94.817-42.535-94.817-94.756l.414-51.765c1.655.198 3.34.224 5.03.062l58.934-5.642c20.412-1.954 41.112-1.954 61.524 0l58.934 5.642c.75.072 1.497.107 2.243.107.991 0 1.973-.085 2.948-.209l-.394 51.745c0 17.792-4.955 35.131-14.328 50.143-2.194 3.513-1.124 8.14 2.39 10.334 1.235.771 2.608 1.139 3.965 1.139 2.501 0 4.947-1.251 6.369-3.529 6.204-9.936 10.73-20.75 13.477-32.025.285.033.573.054.866.054 21.294 0 38.617-17.324 38.617-38.618.001-20.402-15.904-37.148-35.966-38.516zm-75.456 179.23c39.977 0 72.5 32.523 72.5 72.5v47.212c0 4.581-3.727 8.308-8.308 8.308h-42.697v-18.49c0-4.142-3.358-7.5-7.5-7.5s-7.5 3.358-7.5 7.5v18.49h-81v-18.49c0-4.142-3.358-7.5-7.5-7.5s-7.5 3.358-7.5 7.5v18.49h-40.444c-4.581 0-8.308-3.727-8.308-8.308v-47.212c0-39.977 32.523-72.5 72.5-72.5h3.251v2.741c0 15.997 13.014 29.011 29.011 29.011h1.143c15.997 0 29.011-13.014 29.011-29.011v-2.741zm-18.342-19.65v22.391c0 7.726-6.285 14.011-14.011 14.011h-1.143c-7.726 0-14.011-6.285-14.011-14.011v-21.881c4.187.486 8.441.745 12.756.745 5.527-.001 11.007-.44 16.409-1.255zm-143.314-121.064c0-10.86 7.371-20.026 17.371-22.772l-.282 35.274c0 3.484.171 6.928.49 10.33-10.107-2.676-17.579-11.896-17.579-22.832zm218.355-54.073-58.934-5.642c-21.361-2.045-43.023-2.045-64.384 0l-58.934 5.642c-2.342.224-4.646-.52-6.32-2.04-1.475-1.341-2.288-3.121-2.288-5.013 0-3.64 3.002-6.672 6.983-7.054l61.988-5.934c10.206-.977 20.484-1.465 30.762-1.465s20.556.488 30.762 1.465l61.988 5.934c3.98.381 6.982 3.414 6.982 7.054 0 1.892-.813 3.672-2.288 5.013-1.671 1.521-3.977 2.265-6.317 2.04zm17.811 77.622c.365-3.64.557-7.307.557-10.99l.275-36.038c11.834 1.269 21.082 11.313 21.082 23.479-.001 12.45-9.685 22.673-21.914 23.549z"/><path d="m97.437 235.368c-4.142 0-7.5 3.358-7.5 7.5v7.329c0 4.142 3.358 7.5 7.5 7.5s7.5-3.358 7.5-7.5v-7.329c0-4.142-3.358-7.5-7.5-7.5z"/><path d="m182.428 242.868v7.329c0 4.142 3.358 7.5 7.5 7.5s7.5-3.358 7.5-7.5v-7.329c0-4.142-3.358-7.5-7.5-7.5s-7.5 3.358-7.5 7.5z"/><path d="m150.972 277.279c-1 1.805-2.9 2.926-4.958 2.926-2.053 0-3.95-1.117-4.952-2.914-2.017-3.619-6.584-4.917-10.203-2.9-3.618 2.017-4.917 6.584-2.9 10.203 3.648 6.545 10.566 10.611 18.055 10.611 7.51 0 14.438-4.083 18.08-10.656 2.007-3.624.697-8.188-2.926-10.195-3.625-2.008-8.189-.697-10.196 2.925z"/><path d="m111.108 205.563c1.643-3.803-.108-8.217-3.91-9.859-9.261-4.001-19.867-3.142-28.376 2.296-3.49 2.231-4.511 6.869-2.28 10.359 1.431 2.239 3.853 3.461 6.326 3.461 1.383 0 2.782-.382 4.033-1.182 4.304-2.751 9.667-3.188 14.348-1.166 3.803 1.644 8.216-.108 9.859-3.909z"/><path d="m205.852 211.82c2.473 0 4.895-1.223 6.326-3.461 2.231-3.49 1.21-8.127-2.28-10.359-8.508-5.439-19.116-6.297-28.375-2.296-3.802 1.643-5.553 6.057-3.91 9.859s6.056 5.556 9.859 3.91c4.679-2.022 10.043-1.586 14.347 1.166 1.251.799 2.65 1.181 4.033 1.181z"/><path d="m168.799 424.777v10.275c0 8.523 6.934 15.457 15.457 15.457h26c8.523 0 15.457-6.934 15.457-15.457v-10.275c0-8.523-6.934-15.457-15.457-15.457h-26c-8.523 0-15.457 6.934-15.457 15.457zm15 0c0-.252.205-.457.457-.457h26c.252 0 .457.205.457.457v10.275c0 .252-.205.457-.457.457h-26c-.252 0-.457-.205-.457-.457z"/><path d="m410.599 80.697c-13.073-4.404-27.29 2.647-31.695 15.72-4.404 13.073 2.647 27.292 15.721 31.696 2.64.889 5.325 1.312 7.968 1.312 10.445 0 20.212-6.599 23.728-17.032 2.131-6.326 1.669-13.109-1.303-19.1s-8.093-10.465-14.419-12.596zm1.506 26.907c-1.763 5.234-7.456 8.058-12.691 6.294-5.234-1.764-8.059-7.457-6.295-12.692 1.407-4.178 5.317-6.819 9.501-6.819 1.058 0 2.134.169 3.19.525 2.529.852 4.577 2.644 5.769 5.046s1.378 5.117.526 7.646z"/><path d="m463.537 121.007c-1.324-2.977-3.85-5.295-6.928-6.361 0 0 0 0-.001 0l-1.733-.6c1.215-6.521 1.184-13.161-.092-19.677l1.657-.572c3.098-1.068 5.633-3.401 6.955-6.401 1.316-2.989 1.329-6.419.034-9.411-6.776-15.651-19.149-27.935-34.84-34.588-2.989-1.268-6.408-1.233-9.378.09-2.98 1.329-5.298 3.861-6.357 6.946l-.588 1.71c-6.516-1.215-13.149-1.187-19.659.084l-.573-1.665c-1.068-3.099-3.4-5.636-6.399-6.96-2.975-1.313-6.39-1.332-9.37-.046-15.68 6.766-27.986 19.143-34.65 34.85-1.272 2.997-1.237 6.422.096 9.399 1.339 2.988 3.884 5.304 6.983 6.356l1.661.563c-1.218 6.513-1.192 13.145.074 19.654l-1.663.572c-3.095 1.064-5.63 3.39-6.955 6.382-1.321 2.982-1.343 6.408-.06 9.399 6.81 15.871 19.116 28.291 34.652 34.971 1.497.644 3.098.966 4.697.966 1.648 0 3.296-.342 4.824-1.024 2.995-1.337 5.312-3.886 6.357-6.995l.668-1.985c6.497 1.213 13.114 1.188 19.607-.071l.571 1.665c1.064 3.101 3.394 5.64 6.391 6.968 2.975 1.317 6.391 1.338 9.371.057 15.724-6.764 28.059-19.161 34.733-34.91 1.266-2.984 1.234-6.398-.085-9.366zm-37.384 28.995-1.675-4.881c-.646-1.882-2.013-3.43-3.801-4.304-1.787-.873-3.849-1-5.73-.354-8.013 2.753-16.48 2.783-24.491.09-3.925-1.319-8.176.79-9.497 4.712l-1.746 5.191c-9.516-4.892-17.243-12.716-22.2-22.479l4.896-1.684c1.882-.646 3.429-2.015 4.302-3.803.872-1.788.999-3.85.352-5.731-2.761-8.018-2.794-16.494-.099-24.512 1.318-3.919-.784-8.166-4.699-9.493l-4.873-1.652c4.858-9.593 12.559-17.342 22.127-22.268l1.681 4.878c.647 1.881 2.017 3.428 3.805 4.3 1.79.873 3.851.998 5.731.348 8.008-2.761 16.477-2.803 24.49-.118 3.906 1.308 8.138-.778 9.476-4.674l1.684-4.9c9.596 4.853 17.351 12.549 22.283 22.115l-4.878 1.683c-1.881.649-3.427 2.019-4.298 3.808-.87 1.789-.994 3.851-.345 5.731 2.767 8.007 2.813 16.475.132 24.49-1.304 3.9.775 8.123 4.662 9.466l4.913 1.7c-4.867 9.635-12.593 17.409-22.202 22.341z"/></svg>